<?xml version="1.0" encoding="UTF-8" standalone="no"?>
<!-- Created with Inkscape (http://www.inkscape.org/) -->

<svg
   width="210mm"
   height="297mm"
   viewBox="0 0 210 297"
   version="1.1"
   id="svg5"
   inkscape:version="1.2.1 (9c6d41e, 2022-07-14)"
   sodipodi:docname="elements.svg"
   inkscape:export-filename="elements.png"
   inkscape:export-xdpi="96"
   inkscape:export-ydpi="96"
   xmlns:inkscape="http://www.inkscape.org/namespaces/inkscape"
   xmlns:sodipodi="http://sodipodi.sourceforge.net/DTD/sodipodi-0.dtd"
   xmlns="http://www.w3.org/2000/svg"
   xmlns:svg="http://www.w3.org/2000/svg">
  <sodipodi:namedview
     id="namedview7"
     pagecolor="#ffffff"
     bordercolor="#000000"
     borderopacity="0.25"
     inkscape:showpageshadow="2"
     inkscape:pageopacity="0.0"
     inkscape:pagecheckerboard="0"
     inkscape:deskcolor="#d1d1d1"
     inkscape:document-units="mm"
     showgrid="false"
     inkscape:zoom="0.93135286"
     inkscape:cx="365.06035"
     inkscape:cy="616.30777"
     inkscape:window-width="1512"
     inkscape:window-height="828"
     inkscape:window-x="0"
     inkscape:window-y="38"
     inkscape:window-maximized="1"
     inkscape:current-layer="layer10" />
  <defs
     id="defs2" />
  <g
     inkscape:groupmode="layer"
     id="layer4"
     inkscape:label="star"
     style="display:inline"
     transform="translate(44.850255,45.05126)"
     sodipodi:insensitive="true">
    <path
       id="path4350"
       style="color:#000000;fill:#000000;stroke-width:3.7436;stroke-linejoin:round;-inkscape-stroke:none"
       d="m 8.29723,-12.000166 c -2.0159704,-0.0023 -3.8647161,1.143454 -4.7593368,2.9503635 -0.1277834,0.2581696 -0.1942626,0.5423465 -0.194262,0.8304093 v -0.4373715 l -3.16058497,6.3854945 -0.82379965,0.118814 -6.66149148,0.9603472 h -6.458e-4 c -4.2166133,0.60852113 -5.9954833,6.061634 -2.9502013,9.0401924 l 0.0011,0.00306 5.4101531,5.2845756 -1.2869649,7.452565 v 4.68e-4 c -0.5929366,3.436773 2.3536256,6.562472 5.81947462,6.17237 0.65409355,-0.07358 1.28657249,-0.269211 1.86636558,-0.572789 5.615e-4,-3e-4 0.00134,-3.12e-4 0.00193,-6.24e-4 h 0.00112 l 6.6976032,-3.511384 6.6908324,3.526698 c 3.767338,1.984882 8.408807,-1.37687 7.700995,-5.573946 -1.99e-4,-0.0028 -3.12e-4,-0.0057 -6.24e-4,-0.0085 L 21.379177,13.16511 c 2.309604,-2.333326 4.160742,-4.1938516 5.422245,-5.2729616 3.054399,-2.9715489 1.287149,-8.43077162 -2.929083,-9.0488979 l -6.24e-4,-6.551e-4 -7.482908,-1.0956009 -3.339532,-6.7851419 v -1.613e-4 -1.612e-4 -1.612e-4 -1.612e-4 C 12.158881,-10.847636 10.313559,-11.997879 8.2971927,-12.000118 Z"
       sodipodi:nodetypes="ccccccccccccccsccccccccccccccccc" />
    <path
       style="color:#000000;display:inline;fill:#ea6d00;fill-opacity:1;stroke-width:0.311967;stroke-linejoin:round;-inkscape-stroke:none"
       d="m 8.2948951,-10.128317 c -1.3020887,-0.0015 -2.5017062,0.7420713 -3.0794515,1.908968 v 6.092e-4 L 1.4243179,-0.5591062 -7.0353394,0.66073196 C -9.7308822,1.0497397 -10.891517,4.6078341 -8.9436977,6.5113249 v 6.24e-4 l 6.1138145,5.9724551 -1.4544224,8.422489 c -0.3802923,2.204254 1.5427526,4.244213 3.76553444,3.994028 0.42258312,-0.04754 0.83221214,-0.173678 1.20887065,-0.371072 h 6.2393e-4 L 8.2601645,20.5614 15.82109,24.546895 c 2.409317,1.269389 5.439684,-0.926694 4.982936,-3.611379 v -6.24e-4 l -1.435534,-8.425521 6.127219,-5.9590502 h 6.24e-4 C 27.448407,4.6512003 26.295431,1.0899076 23.600772,0.69485331 L 15.144147,-0.54326422 11.370082,-8.2120373 C 10.795004,-9.380309 9.597036,-10.126871 8.2948951,-10.128317 Z"
       id="path3594"
       sodipodi:nodetypes="ccccccccccccccccccccccc" />
    <path
       style="color:#000000;display:inline;fill:#fff309;fill-opacity:1;stroke:none;stroke-width:1.24786;stroke-linejoin:round"
       d="M 8.2925813,-8.2565159 A 1.5599895,1.5599895 0 0 0 6.8927668,-7.3887043 L 2.6652731,1.1533385 -6.76812,2.5131713 A 1.5599895,1.5599895 0 0 0 -7.6356083,5.1728671 L -0.81806133,11.83323 -2.440027,21.225188 a 1.5599895,1.5599895 0 0 0 1.71176152,1.815426 1.5599895,1.5599895 0 0 0 0.54973728,-0.168469 l 8.4412852,-4.425624 8.430967,4.444647 A 1.5599895,1.5599895 0 0 0 18.95877,21.249372 L 17.358244,11.853866 24.190782,5.2086572 A 1.5599895,1.5599895 0 0 0 23.329259,2.5470269 L 13.898933,1.1659132 9.69046,-7.3854808 A 1.5599895,1.5599895 0 0 0 8.2925813,-8.2565159 Z"
       id="path2481" />
    <path
       id="path2481-4"
       style="color:#000000;display:inline;fill:#ffffff;stroke:none;stroke-width:1.24786;stroke-linejoin:round;-inkscape-stroke:none"
       d="m 8.3093005,-8.269102 c -0.5937289,-6.834e-4 -1.1363724,0.3357266 -1.3998142,0.86781 L 2.681992,1.1407503 -6.7513996,2.5005847 C -8.0309024,2.6852362 -8.5434668,4.256745 -7.6188879,5.1602811 l 0.6456656,0.63077 C -5.4211851,5.980748 -6.1487616,4.9932124 -4.9098608,4.7672437 L 4.5235307,3.4074093 8.751025,-5.134633 c 0.1352054,-0.2730813 0.3439544,-0.4946216 0.5954079,-0.6455024 0.581659,-0.5571235 0.6006437,-0.4377918 0.3607476,-1.617934 -0.2622263,-0.5327111 -0.8041264,-0.8703743 -1.39788,-0.8710326 z m 5.6415225,9.4089595 c 0,0 -0.03035,1.0067237 0.59387,1.6569467 0.598205,0.6762317 1.212497,0.6231805 1.212497,0.6231805 L 24.546215,4.707109 C 24.961908,3.764228 24.365446,2.684509 23.345983,2.5344394 Z M -0.84915411,11.836503 -2.4233084,21.212605 c -0.1767156,1.024296 0.6788559,1.931675 1.71176214,1.815418 0.072755,-0.0098 0.14472725,-0.02471 0.21538082,-0.04466 l 1.53636194,-8.89606 c 0,0 -0.0503748,-0.728333 -0.72660672,-1.352547 -0.44215153,-0.572196 -1.16274389,-0.898253 -1.16274389,-0.898253 z"
       sodipodi:nodetypes="ccccccccccccccccccccccccc" />
    <circle
       style="fill:#ffffff;fill-opacity:1;stroke:none;stroke-width:3.7436;stroke-linecap:round;stroke-linejoin:round;stroke-dasharray:none;stroke-opacity:1;paint-order:markers stroke fill"
       id="path4453"
       cx="12.509273"
       cy="9.602622"
       r="2.6797531" />
    <circle
       style="display:inline;fill:#ffffff;fill-opacity:1;stroke:none;stroke-width:2.21105;stroke-linecap:round;stroke-linejoin:round;stroke-dasharray:none;stroke-opacity:1;paint-order:markers stroke fill"
       id="path4453-4"
       cx="8.0214167"
       cy="12.893717"
       r="1.5827221" />
    <circle
       style="display:inline;fill:#ffffff;fill-opacity:1;stroke:none;stroke-width:2.21105;stroke-linecap:round;stroke-linejoin:round;stroke-dasharray:none;stroke-opacity:1;paint-order:markers stroke fill"
       id="path4453-4-9"
       cx="6.5254655"
       cy="8.1066713"
       r="1.5827221" />
  </g>
  <g
     inkscape:groupmode="layer"
     id="layer8"
     inkscape:label="power">
    <path
       id="path8202"
       style="color:#000000;fill:#1a1a1a;stroke:#000000;stroke-width:4.09403;stroke-linecap:round;stroke-linejoin:round;stroke-dasharray:none;stroke-opacity:1;paint-order:markers stroke fill"
       d="m 112.29262,33.455351 c -2.29401,8.19e-4 -4.07486,2.194177 -3.60465,4.43948 a 2.0472214,2.0472214 0 0 0 0,0.0017 l 4.00916,19.085282 a 2.0472214,2.0472214 0 0 0 0,0.0017 c 0.35692,1.69263 1.87649,2.924525 3.60634,2.924675 h 3.62538 l -0.0334,5.25993 c -0.0106,1.696504 1.20244,3.113361 2.59887,3.544137 1.39687,0.430914 3.19651,-0.05622 4.14329,-1.464876 l 11.7833,-17.546835 a 2.0472214,2.0472214 0 0 0 0,-4.23e-4 2.0472214,2.0472214 0 0 0 0,-4.23e-4 2.0472214,2.0472214 0 0 0 0,-4.24e-4 2.0472214,2.0472214 0 0 0 0,-4.22e-4 c 1.57922,-2.35241 -0.2259,-5.737612 -3.05923,-5.738067 h -2.89633 l 1.55628,-5.877278 a 2.0472214,2.0472214 0 0 0 0,-4.23e-4 2.0472214,2.0472214 0 0 0 0,-4.22e-4 2.0472214,2.0472214 0 0 0 0,-4.24e-4 2.0472214,2.0472214 0 0 0 0,-4.23e-4 c 0.60495,-2.288012 -1.19478,-4.626477 -3.56149,-4.626504 h -18.16582 a 2.0472214,2.0472214 0 0 0 -0.002,0 z" />
    <path
       id="path8202-4"
       style="color:#000000;fill:#ff0000;stroke-width:0.818807;stroke-linecap:round;stroke-linejoin:round;-inkscape-stroke:none;paint-order:markers stroke fill"
       d="m 112.29262,33.455351 c -2.29401,8.19e-4 -4.07486,2.194177 -3.60465,4.43948 a 2.0472214,2.0472214 0 0 0 0,0.0017 l 4.00916,19.085285 a 2.0472214,2.0472214 0 0 0 0,0.0016 c 0.35692,1.692629 1.87649,2.924524 3.60634,2.924671 h 3.62538 l -0.0334,5.259932 c -0.0106,1.696502 1.20244,3.113357 2.59887,3.54414 1.39687,0.430913 3.19651,-0.05625 4.14329,-1.464878 l 11.7833,-17.546839 a 2.0472214,2.0472214 0 0 0 0,-4.18e-4 2.0472214,2.0472214 0 0 0 0,-4.26e-4 2.0472214,2.0472214 0 0 0 0,-4.25e-4 2.0472214,2.0472214 0 0 0 0,-4.18e-4 c 1.57922,-2.352415 -0.2259,-5.737616 -3.05923,-5.738066 h -2.89633 l 1.55628,-5.877281 a 2.0472214,2.0472214 0 0 0 0,-4.24e-4 2.0472214,2.0472214 0 0 0 0,-4.22e-4 2.0472214,2.0472214 0 0 0 0,-4.24e-4 2.0472214,2.0472214 0 0 0 0,-4.23e-4 c 0.60495,-2.28793 -1.19478,-4.626395 -3.56149,-4.626422 h -18.16582 a 2.0472214,2.0472214 0 0 0 -0.002,0 z" />
    <path
       id="path7684-3"
       style="color:#000000;display:inline;fill:#fff309;stroke-width:0.818807;stroke-linecap:round;stroke-linejoin:round;-inkscape-stroke:none;paint-order:markers stroke fill"
       d="m 112.29381,35.502414 a 1.6377771,1.6377771 0 0 0 -1.60239,1.973478 l 4.00958,19.085283 a 1.6377771,1.6377771 0 0 0 1.60239,1.299855 h 5.68517 l -0.0465,7.319727 a 1.6377771,1.6377771 0 0 0 2.99702,0.92454 l 11.78164,-17.546781 a 1.6377771,1.6377771 0 0 0 -1.35952,-2.550629 h -5.55569 l 2.23751,-8.449061 a 1.6377771,1.6377771 0 0 0 -1.58335,-2.056412 z"
       inkscape:label="path7684" />
    <path
       id="path7684-3-2"
       style="color:#000000;display:inline;fill:#ffffff;stroke-width:0.818807;stroke-linecap:round;stroke-linejoin:round;-inkscape-stroke:none;paint-order:markers stroke fill"
       inkscape:label="path7684"
       d="m 112.32681,35.507323 c -1.03937,3.22e-4 -1.81556,0.956225 -1.60249,1.973523 l 4.00958,19.08514 c 0.15962,0.757733 0.82812,1.300123 1.60248,1.300179 h 0.99322 l -3.915,-18.636589 c -0.21307,-1.017298 0.56311,-1.973201 1.60248,-1.973523 h 17.10904 c 0.0642,-0.945807 -0.6855,-1.748426 -1.63349,-1.74873 z m 17.55937,10.505819 c 0,0 0.16656,0.602637 0.9371,1.186382 0.93399,0.700494 1.7054,0.562348 1.7054,0.562348 h 4.49637 c 0.0641,-0.944789 -0.68395,-1.746935 -1.63091,-1.74873 z m -7.87624,11.87415 -0.0351,7.298319 c -0.001,1.393888 1.62852,2.152004 2.69389,1.25316 l 0.0434,-6.82388 c 0,0 -0.22717,-0.547928 -1.20787,-1.155023 -0.91064,-0.560395 -1.49428,-0.572576 -1.49428,-0.572576 z"
       sodipodi:nodetypes="cccccccccccccccccccccc" />
    <path
       id="path8296"
       style="fill:#ffffff;stroke-width:4.99999;stroke-linecap:round;stroke-linejoin:round;paint-order:markers stroke fill"
       d="m 122.62712,43.105272 a 2.694912,2.694912 0 0 1 -2.6949,2.694912 2.694912,2.694912 0 0 1 -2.69491,-2.694912 2.694912,2.694912 0 0 1 2.69491,-2.694912 2.694912,2.694912 0 0 1 2.6949,2.694912 z" />
    <path
       id="path8296-3"
       style="fill:#ffffff;stroke-width:2.46271;stroke-linecap:round;stroke-linejoin:round;paint-order:markers stroke fill"
       d="m 124.10889,47.993106 a 1.327358,1.327358 0 0 1 -1.32736,1.327358 1.327358,1.327358 0 0 1 -1.32735,-1.327358 1.327358,1.327358 0 0 1 1.32735,-1.327358 1.327358,1.327358 0 0 1 1.32736,1.327358 z" />
    <path
       id="path8296-3-5"
       style="fill:#ffffff;stroke-width:2.46271;stroke-linecap:round;stroke-linejoin:round;paint-order:markers stroke fill"
       d="m 126.56016,43.993655 a 1.327358,1.327358 0 0 1 -1.32736,1.327358 1.327358,1.327358 0 0 1 -1.32735,-1.327358 1.327358,1.327358 0 0 1 1.32735,-1.327357 1.327358,1.327358 0 0 1 1.32736,1.327357 z" />
  </g>
  <g
     inkscape:groupmode="layer"
     id="layer9"
     inkscape:label="energy bar"
     transform="matrix(0.65430097,0,0,0.65430097,-11.57356,50.444998)"
     style="display:inline">
    <g
       id="g9703"
       style="display:none">
      <rect
         style="display:inline;fill:#000000;fill-opacity:1;stroke:none;stroke-width:4.58505;stroke-linecap:round;stroke-linejoin:round;stroke-dasharray:none;stroke-opacity:1;paint-order:markers stroke fill"
         id="rect9549"
         width="218.13716"
         height="34.100845"
         x="98.307922"
         y="99.902069" />
      <rect
         style="display:inline;fill:#ffff00;fill-opacity:1;stroke:none;stroke-width:3.65436;stroke-linecap:round;stroke-linejoin:round;stroke-dasharray:none;stroke-opacity:1;paint-order:markers stroke fill"
         id="rect9491"
         width="138.56853"
         height="34.100845"
         x="98.307922"
         y="99.902069" />
      <rect
         style="display:inline;fill:#ffffff;fill-opacity:1;stroke:none;stroke-width:1.84163;stroke-linecap:round;stroke-linejoin:round;stroke-dasharray:none;stroke-opacity:1;paint-order:markers stroke fill"
         id="rect9546"
         width="138.56853"
         height="8.6605339"
         x="98.307922"
         y="100.44335" />
    </g>
    <path
       id="path9096"
       style="color:#000000;display:inline;fill:#000000;stroke-linecap:round;stroke-linejoin:round;-inkscape-stroke:none;paint-order:markers stroke fill"
       d="m 60.015187,96.787904 c -5.46392,0 -9.933265,4.469336 -9.933265,9.933256 v 19.98421 c 0,5.46393 4.469344,9.93564 9.933265,9.93564 H 309.34747 c 5.46392,0 9.93327,-4.47171 9.93327,-9.93564 v -19.98421 c 0,-5.46392 -4.46935,-9.933256 -9.93327,-9.933256 z m 40.383063,4.585556 h 208.94922 c 3.00312,0 5.34771,2.34459 5.34771,5.3477 v 19.98421 c 0,3.00313 -2.34459,5.35008 -5.34771,5.35008 H 100.39825 Z" />
    <g
       id="g2613"
       transform="matrix(-0.59747462,0,0,0.59747462,115.66244,-10.544017)"
       style="display:inline">
      <circle
         style="fill:#000000;fill-opacity:1;stroke-width:0.147498"
         id="path1862-2"
         cx="-99.480804"
         cy="209.21341"
         r="36.366016"
         transform="scale(-1,1)" />
      <path
         id="path1231-3"
         style="display:inline;fill:#ff7c00;fill-opacity:1;stroke-width:0.177512"
         d="m 98.66303,173.91752 c -2.5163,0.0368 -5.02506,0.36072 -7.48,0.90859 -4.27819,0.95925 -8.38482,2.68599 -12.050848,5.09254 -2.830783,1.85499 -5.405644,4.09946 -7.636958,6.64381 -1.7929,2.05 -3.31648,4.34266 -4.44614,6.82327 -1.22346,2.66892 -2.00379,5.52457 -2.48009,8.41669 -0.27871,1.73699 -0.25976,3.50193 -0.27254,5.25582 -0.008,2.00648 0.014,4.01901 0.2649,6.01246 0.26182,2.15549 0.65838,4.29125 1.02093,6.43132 0.0532,0.30919 0.10651,0.61836 0.15955,0.92757 0.53519,-0.0575 1.06735,-0.15062 1.6054,-0.17658 0.88716,-0.0241 1.78392,0.10064 2.62067,0.40062 0.0422,0.0243 0.22678,0.0724 0.17577,0.0847 -0.85159,0.0694 -1.71958,-0.0928 -2.55988,0.10603 -0.58353,0.13824 -1.08634,0.48692 -1.65836,0.65861 -0.54282,0.18005 -1.08187,0.3045 -1.64916,0.40378 -0.74002,0.12273 -1.48925,0.22632 -2.20346,0.46367 -0.2814,0.095 -0.47887,0.3437 -0.62089,0.59341 -0.28401,0.51967 -0.19793,1.16598 0.0795,1.66922 0.37921,0.71078 1.05614,1.1982 1.74966,1.57397 1.13852,0.60681 2.41921,0.86819 3.68211,1.07034 1.81066,0.27295 3.5931,0.65072 5.38397,1.02573 3.768516,0.80682 7.524446,1.67363 11.261976,2.61379 1.33184,0.34087 2.65825,0.67902 3.97358,1.08555 0.62792,0.18338 1.20296,0.50393 1.77094,0.82135 0.0501,0.0307 0.15228,0.0904 0.22233,0.13221 0.71509,0.45246 1.43452,0.90514 2.21069,1.24738 0.585,0.25231 1.20703,0.4845 1.85395,0.46192 0.39964,-0.0105 0.81423,-0.20011 1.00654,-0.56501 0.13201,-0.20203 0.13827,-0.48606 -0.0279,-0.67095 -0.19206,-0.21972 -0.46663,-0.34253 -0.67508,-0.54518 -0.80007,-0.70134 -1.5355,-1.47249 -2.26633,-2.24458 -0.70958,-0.76614 -1.41969,-1.53542 -2.05229,-2.36744 -0.2662,-0.35582 -0.46399,-0.76915 -0.65464,-1.15592 -0.75568,-1.6094 -1.21087,-3.34156 -1.54681,-5.08198 -0.0308,-0.17044 -0.07,-0.37722 -0.10091,-0.56247 -0.2538,-1.48027 -0.41163,-2.9758 -0.50521,-4.47437 -0.0166,-0.29097 -0.0349,-0.61188 -0.0469,-0.91458 -0.0521,-1.21435 -0.0624,-2.4394 -0.0323,-3.66281 0.0126,-0.47306 0.0317,-0.97675 0.0609,-1.46147 0.0679,-1.18677 0.18725,-2.35609 0.38121,-3.53124 0.18864,-1.13949 0.452,-2.28533 0.80898,-3.39349 0.52971,-1.65836 1.29276,-3.26796 2.25719,-4.73043 1.4973,-2.27996 3.44973,-4.27774 5.77059,-5.72235 1.62829,-1.02015 3.42767,-1.76289 5.29725,-2.20396 0.13999,-0.0327 0.31986,-0.0737 0.47599,-0.10557 1.7693,-0.37057 3.58966,-0.47619 5.39225,-0.35997 0.34587,0.0225 0.73501,0.0565 1.07916,0.0968 0.45981,0.0544 0.93585,0.129 1.39979,0.22615 0.23268,0.0493 0.49605,0.11149 0.73793,0.17631 1.48596,0.40072 2.89508,1.05226 4.21851,1.83168 0.82068,0.48654 1.61238,1.02673 2.37138,1.59215 1.11076,0.82919 2.16199,1.71889 3.17425,2.66742 1.48946,1.40066 2.89788,2.92269 4.1179,4.57472 0.32949,0.44802 0.65547,0.92457 0.94109,1.38653 0.58464,0.93032 1.04939,1.93374 1.38941,2.9783 0.60401,1.8383 0.92142,3.7651 1.0083,5.69616 0.006,0.15152 0.0129,0.34299 0.0149,0.50998 0.008,0.38716 0.003,0.77451 -0.0114,1.16147 -0.007,0.1292 -0.0129,0.30001 -0.024,0.44557 -0.0449,0.69234 -0.12729,1.38663 -0.24154,2.06184 -0.0565,0.33426 -0.11531,0.63445 -0.18945,0.96692 -0.1113,0.49771 -0.2525,1.01305 -0.4067,1.48357 -0.0884,0.26814 -0.1822,0.52797 -0.28175,0.78214 -0.0484,0.11966 -0.11721,0.29075 -0.17048,0.41012 -0.70479,1.64277 -1.78601,3.13753 -3.19795,4.24326 -1.05725,0.82975 -2.28314,1.48475 -3.60162,1.82335 -1.35953,0.35653 -2.78986,0.41157 -4.1796,0.21918 -0.0826,-0.0135 -0.2148,-0.0309 -0.31627,-0.0494 -0.27039,-0.0442 -0.56913,-0.10722 -0.81647,-0.16693 -0.16391,-0.0408 -0.29292,-0.0743 -0.45489,-0.11984 -2.06254,-0.58921 -3.98865,-1.75083 -5.35081,-3.42273 -0.35598,-0.43609 -0.6641,-0.90874 -0.9507,-1.39257 -0.59946,-1.02268 -1.12775,-2.1186 -1.57507,-3.22766 -0.38905,-0.98061 -0.73057,-1.98773 -0.90897,-3.03 -0.0613,-0.37176 -0.0907,-0.74794 -0.10611,-1.12416 -0.002,-0.0763 -0.007,-0.1948 -0.008,-0.27851 -0.008,-0.4228 -0.008,-0.84334 0.015,-1.25726 0.0115,-0.19695 0.0279,-0.40734 0.0546,-0.62165 0.098,-0.8783 0.3815,-1.73512 0.83942,-2.49179 0.2572,-0.44416 0.5664,-0.85779 0.93292,-1.21789 0.33045,-0.33496 0.68642,-0.6495 1.04282,-0.94072 0.99465,-0.80505 2.0635,-1.53316 3.23558,-2.05534 0.43433,-0.20856 0.89727,-0.37365 1.38251,-0.39809 0.32994,-0.0255 0.63544,-0.0259 0.96688,-0.0277 0.46791,-0.001 0.93601,-0.004 1.40371,0.012 0.0504,0.003 0.1584,0.007 0.23221,0.0138 0.43979,0.0201 0.86385,0.158 1.25452,0.35561 0.79258,0.37224 1.55023,0.84614 2.16106,1.4793 0.5643,0.62602 0.98434,1.36737 1.3395,2.12766 0.0753,0.16647 0.16347,0.36642 0.23591,0.54935 0.20204,0.50211 0.37066,1.01775 0.50359,1.54242 0.0533,0.21383 0.1083,0.46163 0.14865,0.69155 0.21704,1.2223 0.21594,2.51975 -0.2378,3.69057 -0.32693,0.84934 -0.9397,1.60086 -1.75464,2.0215 -0.56214,0.30619 -1.24005,0.40894 -1.85959,0.23024 -0.83137,-0.23119 -1.51999,-0.79392 -2.12013,-1.39311 -0.20076,-0.20374 -0.39965,-0.40969 -0.58632,-0.62653 0.861,0.25935 1.70153,0.58633 2.5743,0.80576 0.44509,0.10703 0.94361,0.15687 1.35889,-0.0772 0.35709,-0.20146 0.64479,-0.50421 0.91466,-0.80807 0.63677,-0.75845 0.91939,-1.77102 0.86906,-2.75151 -0.0469,-0.99484 -0.37671,-1.9665 -0.88552,-2.8184 -0.83795,-1.38159 -2.26203,-2.3625 -3.8215,-2.75033 -1.45685,-0.37003 -3.04224,-0.2413 -4.40923,0.38894 -0.6952,0.36267 -1.28361,0.89934 -1.8117,1.47235 -0.42743,0.47049 -0.80112,0.99636 -1.04465,1.58636 -0.44807,0.98958 -0.61391,2.08061 -0.64576,3.1593 -0.0533,1.38792 0.0778,2.79305 0.50004,4.1208 0.49501,1.59423 1.41467,3.05426 2.64754,4.18082 1.27429,1.17128 2.8421,1.99633 4.49079,2.50269 1.43083,0.42472 2.98869,0.47523 4.42149,0.0314 1.45873,-0.44009 2.73921,-1.37641 3.68684,-2.56001 0.66453,-0.842 1.22384,-1.76542 1.69104,-2.73019 1.02641,-2.12549 1.51639,-4.51149 1.3742,-6.86958 -0.1085,-1.83588 -0.57251,-3.65107 -1.36637,-5.31055 -0.81248,-1.71189 -1.81721,-3.32727 -2.91689,-4.86825 -0.90459,-1.24971 -1.8729,-2.46245 -2.99254,-3.52765 -1.3879,-1.28989 -2.94836,-2.38547 -4.58731,-3.33185 -1.50818,-0.85853 -3.09311,-1.60405 -4.76664,-2.0775 -1.40709,-0.3819 -2.88002,-0.48761 -4.33239,-0.40415 -1.11243,0.0669 -2.2211,0.26551 -3.26987,0.64818 -1.90631,0.66574 -3.71989,1.58978 -5.40021,2.70761 -1.29297,0.86778 -2.51625,1.86376 -3.5036,3.07514 -1.50027,1.79197 -2.59085,3.90498 -3.29697,6.12753 -0.86712,2.71565 -1.21302,5.57009 -1.30988,8.41059 -0.0613,1.86315 -0.0141,3.72894 0.0986,5.58922 0.0915,1.44636 0.29041,2.88963 0.66888,4.29033 0.24845,0.92333 0.53579,1.83685 0.86708,2.73386 0.46009,1.2278 1.09474,2.39474 1.92454,3.4127 0.85699,1.05352 1.86619,1.97354 2.92393,2.8211 2.24693,1.78135 4.79577,3.16489 7.47322,4.18076 1.86986,0.70437 3.80964,1.23174 5.78647,1.52848 1.33469,0.17122 2.6845,0.18288 4.02796,0.15045 1.30364,-0.0428 2.61085,-0.12743 3.89503,-0.36553 2.32844,-0.48677 4.57264,-1.37016 6.61381,-2.591 2.72101,-1.62302 5.05598,-3.83953 6.98706,-6.34027 1.73913,-2.25204 3.17712,-4.72622 4.38366,-7.29986 0.87412,-1.8717 1.56522,-3.83804 1.93295,-5.87439 0.36586,-1.97245 0.44027,-3.98539 0.40987,-5.98729 -0.009,-1.21589 -0.0532,-2.43737 -0.27759,-3.63529 -0.46213,-2.58377 -1.20959,-5.1196 -2.27475,-7.52005 -1.63192,-3.70144 -3.95593,-7.05195 -6.50581,-10.17516 -1.40788,-1.72247 -2.86941,-3.41 -4.51356,-4.91319 -1.60992,-1.48057 -3.39848,-2.76938 -5.32981,-3.79802 -0.8975,-0.4863 -1.83073,-0.90385 -2.76511,-1.30939 -1.37887,-0.61759 -2.75299,-1.28439 -4.11632,-1.95204 -2.36817,-1.12359 -4.91168,-1.87189 -7.50893,-2.22229 -1.40427,-0.19298 -2.82317,-0.27085 -4.2402,-0.25518 z" />
      <path
         id="path1241-8"
         style="display:inline;fill:#e36f00;fill-opacity:1;stroke-width:0.177512"
         d="m 98.66303,173.91752 c -2.5163,0.0368 -5.02506,0.36072 -7.48,0.90859 -4.27819,0.95925 -8.38482,2.68599 -12.050848,5.09254 -2.830783,1.85499 -5.405644,4.09946 -7.636958,6.64381 -1.7929,2.05 -3.31648,4.34266 -4.44614,6.82327 -1.22346,2.66892 -2.00379,5.52457 -2.48009,8.41669 -0.27871,1.73699 -0.25976,3.50193 -0.27254,5.25582 -0.008,2.00648 0.014,4.01901 0.2649,6.01246 0.26182,2.15549 0.65838,4.29125 1.02093,6.43132 0.0532,0.30919 0.10651,0.61836 0.15955,0.92757 0.53519,-0.0575 1.06735,-0.15062 1.6054,-0.17658 0.88716,-0.0241 1.17459,0.23604 2.62067,0.33291 0.0422,0.0243 5.160008,1.28022 5.109,1.29253 -1.460982,-5.95537 -6.88494,-6.18123 -7.62611,-12.16257 -2.55719,-20.63657 11.774426,-29.92201 20.387006,-31.83646 7.57548,-0.93137 17.11818,-4.80437 32.26147,6.55039 7.83605,5.87563 14.14186,19.22567 13.28204,28.23696 -0.18786,7.32546 -2.97252,11.57204 -5.85129,14.80851 -3.29751,3.67258 -9.39087,6.50517 -12.24472,6.34311 -10.22115,-0.58043 -20.19746,-3.19542 -20.86529,-16.00617 -0.56345,-6.53915 2.96573,-17.74751 8.24737,-19.97034 2.61904,-0.79632 7.42601,-1.9165 14.09218,2.90119 5.0153,3.62461 5.39809,8.99047 3.59541,14.14214 -0.32693,0.84933 -0.9397,1.60086 -1.75464,2.0215 -0.56214,0.30619 -1.24005,0.40893 -1.85959,0.23024 -0.83137,-0.23119 -1.51999,-0.79392 -2.12013,-1.39311 -0.20076,-0.20374 -0.39965,-0.4097 -0.58632,-0.62654 0.861,0.25936 1.70153,0.58634 2.5743,0.80577 0.44509,0.10702 0.94361,0.15687 1.35889,-0.0772 0.35709,-0.20146 0.64479,-0.50421 0.91466,-0.80807 0.63677,-0.75845 0.91939,-1.77102 0.86906,-2.75151 -0.0469,-0.99484 -0.37671,-1.96651 -0.88552,-2.8184 -0.83795,-1.3816 -2.26203,-2.3625 -3.8215,-2.75033 -1.45685,-0.37003 -3.04224,-0.2413 -4.40923,0.38894 -0.6952,0.36267 -1.28361,0.89933 -1.8117,1.47235 -0.42743,0.47049 -0.80112,0.99636 -1.04465,1.58636 -0.44807,0.98958 -0.61391,2.08061 -0.64576,3.1593 -0.0533,1.38792 0.0778,2.79305 0.50004,4.1208 0.49501,1.59423 1.41467,3.05426 2.64754,4.18082 3.98062,3.29511 9.18645,4.14627 12.59912,-0.0259 0.66453,-0.84201 1.22384,-1.76543 1.69104,-2.7302 1.02641,-2.12549 1.51639,-4.51149 1.3742,-6.86958 -0.1085,-1.83588 -0.57251,-3.65107 -1.36637,-5.31055 -0.81248,-1.71189 -1.81721,-3.32727 -2.91689,-4.86825 -0.90459,-1.24971 -1.8729,-2.46245 -2.99254,-3.52765 -1.3879,-1.28989 -2.94836,-2.38547 -4.58731,-3.33185 -1.50818,-0.85853 -3.09311,-1.60404 -4.76664,-2.0775 -1.40709,-0.38189 -2.88002,-0.48761 -4.33239,-0.40415 -1.11243,0.0669 -2.2211,0.26551 -3.26987,0.64818 -1.90631,0.66574 -3.71989,1.58978 -5.40021,2.70761 -1.29297,0.86778 -2.51625,1.86376 -3.5036,3.07514 -1.50027,1.79197 -2.59085,3.90498 -3.29697,6.12753 -0.86712,2.71565 -1.21302,5.57009 -1.30988,8.41059 -0.0613,1.86315 -0.0141,3.72894 0.0986,5.58922 0.0915,1.44636 0.29041,2.88963 0.66888,4.29033 0.24845,0.92333 0.53579,1.83685 0.86708,2.73386 0.46009,1.2278 1.09474,2.39474 1.92454,3.4127 0.85699,1.05352 1.86619,1.97354 2.92393,2.8211 2.24693,1.78135 4.79577,3.16489 7.47322,4.18076 1.86986,0.70437 3.80964,1.23174 5.78647,1.52848 1.33469,0.17122 2.6845,0.18288 4.02796,0.15045 1.30364,-0.0428 2.61085,-0.12743 3.89503,-0.36553 2.32844,-0.48677 4.57264,-1.37016 6.61381,-2.591 2.72101,-1.62302 5.05598,-3.83953 6.98706,-6.34027 1.73913,-2.25204 3.17712,-4.72622 4.38366,-7.29986 0.87412,-1.8717 1.56522,-3.83804 1.93295,-5.87439 0.36586,-1.97245 0.44027,-3.98539 0.40987,-5.98729 -0.009,-1.21589 -0.0532,-2.43737 -0.27759,-3.63529 -0.46213,-2.58377 -1.20959,-5.1196 -2.27475,-7.52005 -1.63192,-3.70144 -3.95593,-7.05195 -6.50581,-10.17516 -1.40788,-1.72247 -2.86941,-3.41 -4.51356,-4.91319 -1.60992,-1.48057 -3.39848,-2.76937 -5.32981,-3.79802 -0.8975,-0.4863 -1.83073,-0.90385 -2.76511,-1.30939 -1.37887,-0.61759 -2.75299,-1.28439 -4.11632,-1.95204 -2.36817,-1.12359 -4.91168,-1.87189 -7.50893,-2.22229 -1.40427,-0.19298 -2.82317,-0.27085 -4.2402,-0.25518 z"
         sodipodi:nodetypes="cccccccccccccscsccsccsccccccccccccccccccccccccccccccccccccccccccccccccccccccc" />
      <circle
         style="display:inline;fill:#c05e00;fill-opacity:1;stroke-width:0.147498"
         id="path1338-3"
         cx="-77.263138"
         cy="195.23872"
         r="3.7801056"
         transform="scale(-1,1)" />
      <circle
         style="display:inline;fill:#c05e00;fill-opacity:1;stroke-width:0.147498"
         id="path1340-6"
         cx="-72.7789"
         cy="200.31592"
         r="1.5194542"
         transform="scale(-1,1)" />
      <circle
         style="display:inline;fill:#c05e00;fill-opacity:1;stroke-width:0.147498"
         id="path1342-0"
         cx="-77.671532"
         cy="203.20732"
         r="2.4830105"
         transform="scale(-1,1)" />
      <path
         id="path1237-4"
         style="display:inline;fill:#c05e00;fill-opacity:1;stroke-width:0.177512"
         d="m 74.432338,228.71632 c 1.33183,0.34087 11.83504,2.87957 13.15037,3.2861 0.62792,0.18338 1.20295,0.50393 1.77094,0.82135 0.0502,0.0307 0.15229,0.0904 0.22233,0.13221 0.7151,0.45246 1.43452,0.90514 2.21069,1.24738 0.584997,0.25231 1.207027,0.4845 1.853952,0.46192 0.399634,-0.0105 0.814227,-0.20011 1.006541,-0.56501 0.132007,-0.20203 0.138264,-0.48606 -0.02795,-0.67095 -0.19206,-0.21972 -0.466628,-0.34253 -0.675081,-0.54518 -0.800069,-0.70134 -1.535494,-1.47249 -2.266322,-2.24458 -0.70959,-0.76614 -1.4197,-1.53542 -2.05229,-2.36744 -0.2662,-0.35582 -0.46399,-0.76915 -0.65465,-1.15592 -0.75567,-1.6094 -1.21087,-3.34156 -1.54681,-5.08199 -0.0308,-0.17043 -0.07,-0.37722 -0.1009,-0.56247 -0.25381,-1.48026 -0.41163,-2.9758 -0.50522,-4.47436 -0.0166,-0.29097 -0.0349,-0.61189 -0.0469,-0.91459 -0.0521,-1.21435 -0.0624,-2.4394 -0.0323,-3.6628 0.0125,-0.47306 0.0317,-0.97675 0.0609,-1.46147 0.0679,-1.18677 0.18725,-2.3561 0.3812,-3.53124 0.18865,-1.13949 0.45201,-2.28533 0.80899,-3.39349 0.52971,-1.65837 1.29276,-3.26797 2.25719,-4.73044 1.49731,-2.27995 3.44973,-4.27773 5.770595,-5.72234 1.628281,-1.02016 3.427669,-1.7629 5.297247,-2.20396 0.13999,-0.0327 0.31986,-0.0737 0.47598,-0.10557 1.76931,-0.37057 3.58967,-0.47619 5.39226,-0.35997 0.34587,0.0225 0.73501,0.0565 1.07916,0.0968 0.45981,0.0544 0.93585,0.129 1.39978,0.22614 0.23269,0.0493 0.49606,0.1115 0.73794,0.17631 1.48595,0.40073 2.89508,1.05227 4.21851,1.83168 0.82068,0.48655 1.61238,1.02674 2.37138,1.59216 1.11076,0.82919 2.16199,1.71888 3.17425,2.66742 1.48946,1.40066 2.89788,2.92268 4.1179,4.57471 0.32949,0.44802 0.65547,0.92457 0.94109,1.38654 0.58464,0.93031 1.04939,1.93374 1.38941,2.9783 0.60401,1.8383 0.92142,3.7651 1.0083,5.69615 0.006,0.15153 0.0129,0.343 0.0149,0.50999 0.008,0.38716 0.003,0.7745 -0.0114,1.16146 -0.007,0.1292 -0.0129,0.30002 -0.024,0.44558 -0.0449,0.69234 -0.12729,1.38662 -0.24154,2.06184 -0.0565,0.33426 -0.11531,0.63444 -0.18946,0.96692 -0.11129,0.4977 -0.25249,1.01305 -0.4067,1.48357 -0.0884,0.26814 -0.18219,0.52797 -0.28174,0.78214 -0.0484,0.11966 -0.11721,0.29074 -0.17048,0.41012 -0.70479,1.64276 -1.78602,3.13752 -3.19796,4.24325 -1.05725,0.82975 -2.28314,1.48475 -3.60161,1.82335 -1.35953,0.35653 -2.78987,0.41157 -4.1796,0.21918 -0.0826,-0.0135 -0.2148,-0.0309 -0.31628,-0.0494 -0.27038,-0.0442 -0.56913,-0.10722 -0.81647,-0.16693 -0.1639,-0.0408 -0.29291,-0.0743 -0.45488,-0.11984 -2.06254,-0.58921 -3.98865,-1.75083 -5.35081,-3.42272 -0.35598,-0.43609 -0.6641,-0.90875 -0.9507,-1.39257 -0.59946,-1.02269 -1.12775,-2.1186 -1.57507,-3.22766 -0.38905,-0.98062 -0.73057,-1.98774 -0.90898,-3.03001 -0.0613,-0.37175 -0.0907,-0.74794 -0.1061,-1.12416 -0.002,-0.0763 -0.007,-0.1948 -0.008,-0.27851 -0.008,-0.42279 -0.008,-0.84333 0.015,-1.25725 0.0115,-0.19695 0.0279,-0.40734 0.0546,-0.62165 0.098,-0.8783 0.3815,-1.73512 0.83942,-2.4918 0.2572,-0.44415 0.5664,-0.85779 0.93291,-1.21788 0.33046,-0.33497 0.68643,-0.6495 1.04282,-0.94073 0.99465,-0.80505 2.0635,-1.53315 3.23559,-2.05533 0.43433,-0.20857 0.89727,-0.37365 1.3825,-0.3981 0.32995,-0.0255 0.63545,-0.0259 0.96689,-0.0276 0.46791,-0.001 0.93601,-0.005 1.40371,0.012 0.0504,0.003 0.1584,0.007 0.23221,0.0138 0.43979,0.0201 0.86384,0.15801 1.25452,0.35561 0.79258,0.37224 1.55023,0.84615 2.16105,1.4793 0.56431,0.62602 0.98435,1.36738 1.33951,2.12767 0.0753,0.16647 0.16346,0.36641 0.23591,0.54934 0.20204,0.50211 0.37066,1.01775 0.50359,1.54243 0.0533,0.21382 0.1083,0.46163 0.14865,0.69155 0.21704,1.22229 0.21594,2.51975 -0.2378,3.69057 -0.32693,0.84933 -0.9397,1.60086 -1.75464,2.0215 -0.56215,0.30619 -1.24005,0.40893 -1.85959,0.23023 -0.83138,-0.23118 -1.52,-0.79392 -2.12013,-1.3931 -0.20076,-0.20374 -0.39966,-0.4097 -0.58632,-0.62654 0.861,0.25936 1.70153,0.58634 2.5743,0.80577 0.44509,0.10702 0.65019,0.0102 1.28553,-1.10417 0.60375,-2.8043 -6.06636,-4.61577 -7.19348,-0.18109 -0.54226,2.13354 1.00986,5.31783 6.05511,6.18666 4.16914,-0.11795 5.7969,-3.59161 6.77647,-6.90727 0.86768,-10.412 -14.7731,-18.49334 -21.1808,-4.90919 -7.504926,18.26913 15.21473,25.27212 22.44383,18.31337 10.11177,-9.73405 5.68925,-19.99553 1.08342,-29.35531 -6.41266,-8.56703 -15.01084,-12.5588 -26.603929,-11.62719 -12.915093,5.62906 -15.223713,11.59547 -16.173223,22.47442 -1.14516,13.12072 -5.38696,19.33241 -8.66917,19.90298 z"
         sodipodi:nodetypes="ccccccccccccccccccccccccccccccccccccccccccccccccccccccccccccccccccccccccccccccsccccccsc" />
      <path
         id="path367-0"
         style="display:inline;fill:#000000;stroke-width:0.147498"
         d="m 97.97563,172.68943 c -5.09194,0.0322 -10.06723,1.16805 -14.55565,3.35472 -15.118886,7.36561 -21.762456,16.86494 -20.781986,30.61971 0.45455,6.37678 2.19966,11.83473 1.75241,13.85562 -0.26603,1.20201 -3.76044,0.44599 -4.13572,1.23558 -1.16142,2.44369 0.56926,4.82856 0.56926,4.82856 3.73497,5.6911 22.363166,2.27358 31.748986,9.89679 0.53638,0.43564 3.56321,-0.33558 3.76294,-1.56977 4.42627,2.86312 10.31423,5.10577 16.83726,5.0014 12.11449,-0.19383 19.09238,-11.53304 20.25537,-13.66519 1.163,-2.13215 9.78868,-15.99127 -2.22889,-34.50221 -8.44986,-13.0155 -21.16412,-19.13139 -33.22398,-19.05521 z m 1.36724,1.44992 c 4.69235,0.0714 8.62913,1.11054 11.01973,2.48644 5.48606,3.15748 10.03905,2.35134 19.6697,16.00644 5.37704,7.62399 8.34913,18.71974 3.48148,29.03496 -9.48911,20.10872 -25.0896,16.694 -30.03231,15.14336 -4.94271,-1.55066 -11.53283,-5.52427 -13.37423,-10.17623 -1.8414,-4.65197 -2.6169,-10.75764 -1.26008,-18.60783 1.35683,-7.85019 6.00879,-12.59899 13.47132,-14.92498 7.46252,-2.32598 15.40969,4.07051 17.83259,7.17182 2.42289,3.1013 8.23799,9.98219 4.07061,18.70462 -4.16739,8.72243 -12.11454,4.84606 -14.82818,1.64783 -2.71365,-3.19823 -3.10129,-9.30417 -0.48456,-12.11473 2.61673,-2.81056 6.97784,-2.03524 8.91615,0 1.93832,2.03523 1.84589,4.85327 1.2644,5.82243 -0.5815,0.96916 -1.30763,1.72676 -2.42738,1.44646 -1.45951,-0.36534 -3.29509,-1.06619 -3.29509,-1.06619 0,0 3.10122,4.74902 6.10562,1.74463 3.00438,-3.0044 0.48473,-9.4011 -1.74434,-10.95174 -2.22906,-1.55066 -5.62103,-2.90751 -10.75758,1.64754 -5.13654,4.55505 -1.16321,12.11475 0.87202,15.11914 2.03524,3.0044 9.01316,6.78395 15.11886,2.2289 6.1057,-4.55505 5.52423,-15.02198 3.00442,-19.9647 -2.51982,-4.94271 -10.56371,-12.79295 -17.05708,-13.66519 -6.49336,-0.87224 -14.14972,0.67842 -19.28626,8.81936 -5.13654,8.14093 -3.34303,22.63082 -0.92013,27.57353 0.93245,1.90221 2.98084,4.24117 5.83424,6.3891 -0.31841,0.77137 -0.70649,2.12715 -5.91779,-1.45108 -1.0417,-0.71526 -19.510896,-4.9356 -20.983636,-5.03626 -4.92397,-0.33652 -7.11209,-2.62866 -6.0457,-4.32671 0.41858,-0.66652 1.70256,-0.52309 4.02653,-0.92474 0.11751,-0.0203 1.08944,-0.80493 2.17387,-0.97747 0.9968,-0.1586 1.97206,0.20624 2.93527,-0.085 0.1656,-0.0501 -1.17946,-0.68403 -2.63711,-0.83573 -1.02579,-0.10675 -2.29863,0.27428 -2.3084,0.18437 -0.48458,-4.45813 -5.91047,-22.35136 7.463928,-35.43501 8.358998,-8.17728 18.278548,-10.74634 26.099118,-10.62736 z" />
    </g>
    <path
       id="path1862-2-2"
       style="display:inline;fill:#000000;fill-opacity:0.196629;stroke-width:0.100824"
       d="m 59.734214,96.51601 c -2.85985,0.001 -5.079756,2.73538 -4.493563,5.5345 a 2.5521887,2.5521887 0 0 0 0,0.002 l 4.998669,23.79247 a 2.5521887,2.5521887 0 0 0 0,0.002 c 0.444957,2.11013 2.338834,3.6458 4.49537,3.64599 h 4.519766 l -0.0063,0.93431 a 24.858363,24.858363 0 0 0 3.631535,-4.07158 c 2.861193,-0.43124 5.172832,-1.01836 6.109183,-2.44513 0,0 1.183341,-1.6304 0.38944,-3.30081 -0.25652,-0.53973 -2.645482,-0.0232 -2.827328,-0.84487 -0.06504,-0.2939 -0.05222,-0.71355 -0.0045,-1.20358 a 24.858363,24.858363 0 0 0 0.828593,-5.06825 c 0.155612,-1.00641 0.294385,-2.08059 0.374087,-3.1987 0.391251,-5.48876 -0.997252,-9.98499 -4.273989,-13.779775 H 59.736924 a 2.5521887,2.5521887 0 0 0 -0.0027,0 z" />
    <g
       id="g8429"
       transform="translate(-7.6062434,6.9631401)"
       style="display:inline">
      <path
         id="path8202-1"
         style="color:#000000;fill:#1a1a1a;stroke:#000000;stroke-width:4.09403;stroke-linecap:round;stroke-linejoin:round;stroke-dasharray:none;stroke-opacity:1;paint-order:markers stroke fill"
         d="m 73.859239,90.107873 c -2.29401,8.19e-4 -4.07486,2.194177 -3.60465,4.43948 a 2.0472214,2.0472214 0 0 0 0,0.0017 l 4.00916,19.085277 a 2.0472214,2.0472214 0 0 0 0,0.002 c 0.35692,1.69264 1.87649,2.92453 3.60634,2.92468 h 3.62538 l -0.0334,5.25993 c -0.0106,1.6965 1.20244,3.11336 2.59887,3.54414 1.39687,0.43091 3.19651,-0.0562 4.14329,-1.46488 l 11.7833,-17.54683 a 2.0472214,2.0472214 0 0 0 0,-4.3e-4 2.0472214,2.0472214 0 0 0 0,-4.2e-4 2.0472214,2.0472214 0 0 0 0,-4.2e-4 2.0472214,2.0472214 0 0 0 0,-4.3e-4 c 1.579221,-2.35241 -0.2259,-5.73761 -3.05923,-5.73806 h -2.89633 l 1.55628,-5.877281 a 2.0472214,2.0472214 0 0 0 0,-4.23e-4 2.0472214,2.0472214 0 0 0 0,-4.22e-4 2.0472214,2.0472214 0 0 0 0,-4.24e-4 2.0472214,2.0472214 0 0 0 0,-4.23e-4 c 0.60495,-2.288012 -1.19478,-4.626477 -3.56149,-4.626504 h -18.16582 a 2.0472214,2.0472214 0 0 0 -0.002,0 z" />
      <path
         id="path8202-4-7"
         style="color:#000000;fill:#ff0000;stroke-width:0.818807;stroke-linecap:round;stroke-linejoin:round;-inkscape-stroke:none;paint-order:markers stroke fill"
         d="m 73.859239,90.107873 c -2.29401,8.19e-4 -4.07486,2.194177 -3.60465,4.43948 a 2.0472214,2.0472214 0 0 0 0,0.0017 l 4.00916,19.085287 a 2.0472214,2.0472214 0 0 0 0,0.002 c 0.35692,1.69263 1.87649,2.92452 3.60634,2.92467 h 3.62538 l -0.0334,5.25993 c -0.0106,1.6965 1.20244,3.11336 2.59887,3.54414 1.39687,0.43091 3.19651,-0.0563 4.14329,-1.46488 l 11.7833,-17.54684 a 2.0472214,2.0472214 0 0 0 0,-4.1e-4 2.0472214,2.0472214 0 0 0 0,-4.3e-4 2.0472214,2.0472214 0 0 0 0,-4.2e-4 2.0472214,2.0472214 0 0 0 0,-4.2e-4 c 1.579221,-2.35242 -0.2259,-5.73762 -3.05923,-5.73807 h -2.89633 l 1.55628,-5.87728 a 2.0472214,2.0472214 0 0 0 0,-4.24e-4 2.0472214,2.0472214 0 0 0 0,-4.22e-4 2.0472214,2.0472214 0 0 0 0,-4.24e-4 2.0472214,2.0472214 0 0 0 0,-4.23e-4 c 0.60495,-2.28793 -1.19478,-4.626395 -3.56149,-4.626422 h -18.16582 a 2.0472214,2.0472214 0 0 0 -0.002,0 z" />
      <path
         id="path7684-3-4"
         style="color:#000000;display:inline;fill:#fff309;stroke-width:0.818807;stroke-linecap:round;stroke-linejoin:round;-inkscape-stroke:none;paint-order:markers stroke fill"
         d="m 73.860429,92.154936 a 1.6377771,1.6377771 0 0 0 -1.60239,1.973478 l 4.00958,19.085286 a 1.6377771,1.6377771 0 0 0 1.60239,1.29985 h 5.68517 l -0.0465,7.31973 a 1.6377771,1.6377771 0 0 0 2.99702,0.92454 l 11.78164,-17.54678 a 1.6377771,1.6377771 0 0 0 -1.35952,-2.55063 h -5.55569 l 2.23751,-8.449062 a 1.6377771,1.6377771 0 0 0 -1.58335,-2.056412 z"
         inkscape:label="path7684" />
      <path
         id="path7684-3-2-5"
         style="color:#000000;display:inline;fill:#ffffff;stroke-width:0.818807;stroke-linecap:round;stroke-linejoin:round;-inkscape-stroke:none;paint-order:markers stroke fill"
         inkscape:label="path7684"
         d="m 73.893429,92.159845 c -1.03937,3.22e-4 -1.81556,0.956225 -1.60249,1.973523 l 4.00958,19.085142 c 0.15962,0.75773 0.82812,1.30012 1.60248,1.30018 h 0.99322 l -3.915,-18.636592 c -0.21307,-1.017298 0.56311,-1.973201 1.60248,-1.973523 h 17.10904 c 0.0642,-0.945807 -0.6855,-1.748426 -1.63349,-1.74873 z m 17.55937,10.505815 c 0,0 0.16656,0.60264 0.9371,1.18639 0.93399,0.70049 1.7054,0.56234 1.7054,0.56234 h 4.49637 c 0.0641,-0.94478 -0.68395,-1.74693 -1.63091,-1.74873 z m -7.87624,11.87415 -0.0351,7.29832 c -0.001,1.39389 1.62852,2.15201 2.69389,1.25316 l 0.0434,-6.82388 c 0,0 -0.22717,-0.54793 -1.20787,-1.15502 -0.91064,-0.56039 -1.49428,-0.57258 -1.49428,-0.57258 z"
         sodipodi:nodetypes="cccccccccccccccccccccc" />
      <path
         id="path8296-1"
         style="fill:#ffffff;stroke-width:4.99999;stroke-linecap:round;stroke-linejoin:round;paint-order:markers stroke fill"
         d="m 84.193739,99.757794 a 2.694912,2.694912 0 0 1 -2.6949,2.694916 2.694912,2.694912 0 0 1 -2.69491,-2.694916 2.694912,2.694912 0 0 1 2.69491,-2.694912 2.694912,2.694912 0 0 1 2.6949,2.694912 z" />
      <path
         id="path8296-3-7"
         style="fill:#ffffff;stroke-width:2.46271;stroke-linecap:round;stroke-linejoin:round;paint-order:markers stroke fill"
         d="m 85.675509,104.64563 a 1.327358,1.327358 0 0 1 -1.32736,1.32736 1.327358,1.327358 0 0 1 -1.32735,-1.32736 1.327358,1.327358 0 0 1 1.32735,-1.32736 1.327358,1.327358 0 0 1 1.32736,1.32736 z" />
      <path
         id="path8296-3-5-8"
         style="fill:#ffffff;stroke-width:2.46271;stroke-linecap:round;stroke-linejoin:round;paint-order:markers stroke fill"
         d="m 88.126779,100.64618 a 1.327358,1.327358 0 0 1 -1.32736,1.32735 1.327358,1.327358 0 0 1 -1.32735,-1.32735 1.327358,1.327358 0 0 1 1.32735,-1.32736 1.327358,1.327358 0 0 1 1.32736,1.32736 z" />
    </g>
  </g>
  <g
     inkscape:groupmode="layer"
     id="layer10"
     inkscape:label="distance bar">
    <path
       id="path9096-3"
       style="color:#000000;display:inline;fill:#000000;stroke-width:0.654301;stroke-linecap:round;stroke-linejoin:round;-inkscape-stroke:none;paint-order:markers stroke fill"
       d="m 25.576217,164.2029 c -8.961821,0 -16.2889266,7.32762 -16.2889286,16.28944 2e-6,8.96182 7.3271076,16.28686 16.2889286,16.28686 3.694349,0 7.109904,-1.24561 9.849528,-3.33674 H 188.15286 c 3.57504,0 6.49934,-2.92584 6.49934,-6.5009 v -13.07569 c 0,-3.57503 -2.9243,-6.49934 -6.49934,-6.49934 H 35.193717 c -2.699349,-1.98636 -6.026821,-3.16363 -9.6175,-3.16363 z"
       sodipodi:nodetypes="ssscsssscs" />
    <path
       style="color:#000000;display:inline;fill:#babad9;stroke-width:5.69139;stroke-linecap:round;stroke-linejoin:round;-inkscape-stroke:none;paint-order:markers stroke fill;fill-opacity:1"
       d="M 39.017946,180.49182 A 13.442183,13.442183 0 0 1 25.575764,193.934 13.442183,13.442183 0 0 1 12.133581,180.49182 13.442183,13.442183 0 0 1 25.575764,167.04964 13.442183,13.442183 0 0 1 39.017946,180.49182 Z"
       id="path10556" />
    <path
       style="color:#000000;display:inline;fill:#8888bc;fill-opacity:1;stroke-width:5.69139;stroke-linecap:round;stroke-linejoin:round;-inkscape-stroke:none;paint-order:markers stroke fill"
       d="m 39.017946,180.49182 c -2e-6,7.42391 -6.018271,13.44218 -13.442182,13.44218 -3.802676,0 -7.236555,-1.57901 -9.681742,-4.11713 13.665276,-3.53767 8.532649,-12.99266 23.123924,-9.32505 z"
       id="path10965"
       sodipodi:nodetypes="cscc" />
    <path
       style="color:#000000;display:inline;fill:#000000;stroke-linecap:round;stroke-linejoin:round;-inkscape-stroke:none;paint-order:markers stroke fill"
       d="m 17.345703,164.01172 a 1,1 0 0 0 -0.683594,0.34375 1,1 0 0 0 0.103516,1.41211 c 7.840941,6.76747 9.992187,13.84377 9.992187,23.93554 a 1,1 0 0 0 1,1 1,1 0 0 0 1,-1 c 0,-10.39084 -2.44667,-18.34024 -10.685546,-25.45117 a 1,1 0 0 0 -0.726563,-0.24023 z"
       id="path10750" />
    <path
       style="color:#000000;display:inline;fill:#000000;stroke-linecap:round;stroke-linejoin:round;-inkscape-stroke:none;paint-order:markers stroke fill"
       d="m 17.0625,164.08008 a 1.0001,1.0001 0 0 0 -0.658203,0.48633 l -8.7578126,15.55468 a 1.0001,1.0001 0 0 0 1.2363281,1.42188 L 25.25,175.12891 a 1.0001,1.0001 0 0 0 0.515625,-1.40625 c -1.904765,-3.5165 -4.254552,-6.82622 -7.902344,-9.47461 A 1.0001,1.0001 0 0 0 17.0625,164.08008 Z m 0.458984,2.58398 c 2.493257,2.03185 4.338435,4.40912 5.861328,7.05078 l -12.615234,4.94141 z"
       id="path10894" />
    <path
       style="color:#000000;display:inline;fill:#ff0000;stroke-width:2;stroke-linecap:round;stroke-linejoin:round;-inkscape-stroke:none;paint-order:markers stroke fill"
       d="M 17.276251,165.05759 8.5184836,180.611 24.885458,174.19821 c -1.866409,-3.44568 -4.115671,-6.60422 -7.609207,-9.14062 z"
       id="path10896"
       inkscape:label="path10896" />
    <path
       id="path10898"
       style="display:inline;fill:#1a1a1a;stroke-width:2;stroke-linecap:round;stroke-linejoin:round;paint-order:markers stroke fill"
       d="m 27.802954,189.73829 a 3.6373193,0.97161269 0 0 0 -3.636987,0.97203 3.6373193,0.97161269 0 0 0 3.636987,0.97152 3.6373193,0.97161269 0 0 0 3.637504,-0.97152 3.6373193,0.97161269 0 0 0 -3.637504,-0.97203 z" />
    <path
       style="color:#000000;display:inline;fill:#c90000;fill-opacity:1;stroke-width:2;stroke-linecap:round;stroke-linejoin:round;-inkscape-stroke:none;paint-order:markers stroke fill"
       d="m 8.5184836,180.611 16.3669744,-6.41279 c -0.449682,-0.83018 -0.921589,-1.6437 -1.427768,-2.43586 -8.614787,6.67645 -10.136299,0.3189 -14.9392064,8.84865 z"
       id="path10957"
       inkscape:label="path10896"
       sodipodi:nodetypes="cccc" />
  </g>
</svg>
